<?xml version="1.0" encoding="utf-8"?>
<!-- Generator: Adobe Illustrator 27.9.0, SVG Export Plug-In . SVG Version: 6.00 Build 0)  -->
<svg version="1.1" id="Слой_1" xmlns="http://www.w3.org/2000/svg" xmlns:xlink="http://www.w3.org/1999/xlink" x="0px" y="0px"
	 width="500px" height="202px" viewBox="0 0 500 202" style="enable-background:new 0 0 500 202;" xml:space="preserve">
<style type="text/css">
	.st0{fill:url(#SVGID_1_);}
</style>
<linearGradient id="SVGID_1_" gradientUnits="userSpaceOnUse" x1="732.67" y1="-480.6014" x2="732.67" y2="-278.559" gradientTransform="matrix(1 0 0 -1 -482.67 -278.559)">
	<stop  offset="0" style="stop-color:#E3001B"/>
	<stop  offset="1" style="stop-color:#FF3A0B"/>
</linearGradient>
<path class="st0" d="M227,199h-37.2v-6c-5.5,4.1-13.7,8.7-27.5,8.7c-45,0-62.4-24.3-62.4-71.5V55.4h37.1v74.8
	c-0.1,12.8,0,37,26.7,37c25.8,0,26-22.9,26-36.8V55.4H227V199z M85.4,1.2C44.6-3.3,35.3,6,27.9,15.7c-6.6,8.6-7.4,20.6-7.4,29.2
	v10.5H0v34.4h20.8V199H58V89.8h28V55.4H58.7v-9.7c0-9.9,7.9-11.1,11.9-10.9l8.2,0.4L85.4,1.2z M500,127.2
	c0-41.3-33.2-74.8-74.2-74.8c-16.7,0-33,5.7-46,16.2c8.1,9.3,14.2,20.3,17.7,32.2c6.7-8.5,16.7-13.9,27.8-13.9
	c20.3,0,36.8,17.9,36.8,40s-16.5,40-36.8,40c-20.2,0-36.6-17.7-36.8-39.7c0.1-18.2-6.4-35.8-18.3-49.6
	c-13.3-15.5-32.8-25.2-54.5-25.2c-13.1,0-26,3.6-37.1,10.5V2.2l-37.2,7.3V199h37.2v-6c10.9,6.6,23.6,9,37.1,9
	c16.5,0,32.6-5.8,45.3-16.3c-8.3-9.3-14.5-20.2-18.3-32c-6.7,8.9-16.7,14.6-27.8,14.6c-20.1,0-36.4-18.4-36.4-41.2
	s16.3-41.2,36.4-41.2s36.4,18.4,36.4,41.2c0,41.3,33.3,74.8,74.3,74.8S500,168.5,500,127.2L500,127.2z"/>
</svg>
