<svg version="1.1" id="Layer_1" xmlns:x="ns_extend;" xmlns:i="ns_ai;" xmlns:graph="ns_graphs;" xmlns="http://www.w3.org/2000/svg" xmlns:xlink="http://www.w3.org/1999/xlink" x="0px" y="0px" viewBox="0 0 619.8 88" style="enable-background:new 0 0 619.8 88;" xml:space="preserve">
 <style type="text/css">
  .st0{fill:#FFFFFF;}
 </style>
 <metadata>
  <sfw xmlns="ns_sfw;">
   <slices>
   </slices>
   <sliceSourceBounds bottomLeftOrigin="true" height="88" width="619.8" x="-500.9" y="0.1">
   </sliceSourceBounds>
  </sfw>
 </metadata>
 <g>
  <polygon class="st0" points="22,20.2 0,20.2 38.9,88 77.8,20.2 55.8,20.2 38.9,52.1 	">
  </polygon>
  <rect x="83" y="20.2" class="st0" width="18.8" height="67.1">
  </rect>
  <path class="st0" d="M220.7,18.1c-9.2,0-18.1,3.8-24.3,10.6c-12.6,13.7-12.6,34.7,0,48.4c6.4,7,15.5,10.9,24.9,10.8
		c22,0,29.5-16.8,31-21.2h-19.4c-2.1,3.4-6.3,5.3-11.6,5.3c-6.2,0-13.4-3.6-15.3-13.6l-0.1-0.8h48.3c0.2-1.7,0.3-3.4,0.3-5.2
		C254.4,33.5,239.3,18.1,220.7,18.1z M206,46.6l0.2-0.8c1.2-5.7,5.7-12.4,14.5-12.4c8.7,0,13.2,6.7,14.5,12.4l0.2,0.8H206z
		 M295.7,18.1c-19.3,0-34.9,15.6-34.9,34.9s15.6,34.9,34.9,34.9c19.3,0,34.9-15.6,34.9-34.9C330.6,33.8,315,18.1,295.7,18.1z
		 M295.7,70.3c-9.2,0-16.1-7.4-16.1-17.3s6.9-17.3,16.1-17.3s16.1,7.4,16.1,17.3S304.9,70.3,295.7,70.3z M609.3,66.8h-1.1
		c-5.8,0-10.5,4.7-10.5,10.5c0,5.8,4.7,10.5,10.5,10.5h1.1c5.8,0,10.5-4.7,10.5-10.5C619.8,71.5,615.1,66.8,609.3,66.8z M553.5,18.1
		c-18.9,0-33.1,15-33.1,34.9c0,12.9,5.7,21.1,10.4,25.7c6.2,5.9,14.3,9.2,22.9,9.2c9.2,0,15-3.3,18.1-5.4l1.7,4.8h16.7V0h-18.8v25.9
		l0,0C567.2,21.1,560.5,18.1,553.5,18.1z M555.3,70.3c-4.1,0-8.1-1.6-11.1-4.5c-3.3-3.2-5-7.9-5-13.5c0-8.1,6-16.6,16.1-16.6
		c4.8,0,9,1.9,11.9,5.4c2.7,3.3,4.2,7.5,4.1,11.9C571.3,62.9,564.4,70.3,555.3,70.3z M397.2,18.1c-18.9,0-33.1,15-33.1,34.9
		c0,12.9,5.7,21.1,10.4,25.7c6.2,5.9,14.4,9.2,22.9,9.2c9.2,0,15-3.3,18.1-5.4l1.7,4.8h16.7V20.2h-18.2l-0.7,5.8l0,0
		C411,21.1,404.2,18.1,397.2,18.1z M399,70.3c-4.1,0.1-8.1-1.6-11.1-4.5c-3.3-3.2-5-7.9-5-13.5c0-8.1,6-16.6,16.1-16.6
		c4.8,0,9,1.9,11.9,5.4c2.7,3.3,4.2,7.5,4.1,11.9C415.1,62.9,408.2,70.3,399,70.3L399,70.3z M143.2,18.1c-18.9,0-33.1,15-33.1,34.9
		c0,12.9,5.7,21.1,10.4,25.7c6.2,5.9,14.4,9.2,22.9,9.2c9.2,0,15-3.3,18.1-5.4l1.7,4.8h16.7V0h-18.8v25.9l0,0
		C157,21.1,150.2,18.1,143.2,18.1z M145,70.3c-4.1,0-8.1-1.6-11.1-4.5c-3.3-3.2-5-7.9-5-13.5c0-8.1,6-16.6,16.1-16.6
		c4.8,0,9,1.9,11.9,5.4c2.7,3.3,4.2,7.5,4.1,11.9C161.1,62.9,154.2,70.3,145,70.3z">
  </path>
  <rect x="338" class="st0" width="18.8" height="87.3">
  </rect>
  <path class="st0" d="M461.9,55.4c0-12.4,5.8-19.6,16.1-19.6c10.1,0,15.8,5.6,15.8,16.6l0,35H513V49.6c0-21.5-10.3-31.4-29.8-31.4
		c-7.9,0-17.1,3.7-21.2,8.5l-0.7-6.4h-18.1v67.2h18.8V55.4z">
  </path>
 </g>
</svg>